<svg id="Layer_1" data-name="Layer 1" xmlns="http://www.w3.org/2000/svg" xmlns:xlink="http://www.w3.org/1999/xlink" viewBox="0 0 90 24"><defs><style>.cls-1{fill:#292838;}.cls-2{fill:url(#linear-gradient);}.cls-3{fill:url(#linear-gradient-2);}.cls-4{fill:url(#linear-gradient-3);}.cls-5{fill:url(#linear-gradient-4);}.cls-6{fill:url(#linear-gradient-5);}.cls-7{fill:url(#linear-gradient-6);}.cls-8{fill:url(#linear-gradient-7);}.cls-9{fill:url(#linear-gradient-8);}.cls-10{fill:url(#linear-gradient-9);}.cls-11{fill:url(#linear-gradient-10);}.cls-12{fill:url(#linear-gradient-11);}.cls-13{fill:url(#linear-gradient-12);}.cls-14{fill:url(#linear-gradient-13);}.cls-15{fill:url(#linear-gradient-14);}</style><linearGradient id="linear-gradient" x1="28.43" y1="12.16" x2="31.65" y2="12.16" gradientUnits="userSpaceOnUse"><stop offset="0" stop-color="#eb6325"/><stop offset="1" stop-color="#f9b214"/></linearGradient><linearGradient id="linear-gradient-2" x1="68.43" y1="14.38" x2="76.33" y2="14.38" xlink:href="#linear-gradient"/><linearGradient id="linear-gradient-3" x1="21.51" y1="14.23" x2="26.33" y2="14.23" xlink:href="#linear-gradient"/><linearGradient id="linear-gradient-4" x1="18.6" y1="14.39" x2="21.23" y2="14.39" xlink:href="#linear-gradient"/><linearGradient id="linear-gradient-5" x1="41.97" y1="14.23" x2="46.87" y2="14.23" xlink:href="#linear-gradient"/><linearGradient id="linear-gradient-6" x1="37.15" y1="14.23" x2="41.97" y2="14.23" xlink:href="#linear-gradient"/><linearGradient id="linear-gradient-7" x1="34.13" y1="14.4" x2="37.15" y2="14.4" xlink:href="#linear-gradient"/><linearGradient id="linear-gradient-8" x1="48.57" y1="14.4" x2="54.75" y2="14.4" xlink:href="#linear-gradient"/><linearGradient id="linear-gradient-9" x1="53.9" y1="14.4" x2="56.94" y2="14.4" xlink:href="#linear-gradient"/><linearGradient id="linear-gradient-10" x1="62.34" y1="14.4" x2="67.59" y2="14.4" xlink:href="#linear-gradient"/><linearGradient id="linear-gradient-11" x1="59.27" y1="11.84" x2="62.34" y2="11.84" xlink:href="#linear-gradient"/><linearGradient id="linear-gradient-12" x1="81.15" y1="11.87" x2="83.86" y2="11.87" xlink:href="#linear-gradient"/><linearGradient id="linear-gradient-13" x1="78.12" y1="14.4" x2="81.15" y2="14.4" xlink:href="#linear-gradient"/><linearGradient id="linear-gradient-14" x1="6.14" y1="12.16" x2="16.04" y2="12.16" xlink:href="#linear-gradient"/></defs><title>player</title><path class="cls-1" d="M84.53,6a5.71,5.71,0,0,0-1.16-.13,5,5,0,0,0-2.14.5,6.17,6.17,0,0,0-1.63-.23h-.06a4.84,4.84,0,0,0-3,1.06A1.33,1.33,0,0,1,76.33,7a7.09,7.09,0,0,0-7.46-.36,4.5,4.5,0,0,0-2.21-.56h-.9V5.88A4.89,4.89,0,0,0,60.88,1H60.7a4.89,4.89,0,0,0-4.88,4.88v.26l-.31,0h-.19a7.13,7.13,0,0,0-1.44.16,5.91,5.91,0,0,0-2.3-.47,5.68,5.68,0,0,0-3.43,1.12,5.49,5.49,0,0,0-3.4-1.14,6.3,6.3,0,0,0-2.54.51,5.73,5.73,0,0,0-2.4-.51,5.89,5.89,0,0,0-2.43.54,6.63,6.63,0,0,0-1.64-.21h-.18a3.91,3.91,0,0,0-.49,0,5,5,0,0,0-1.45-3A5.06,5.06,0,0,0,30,1.63a5.07,5.07,0,0,0-5,4.24,6.84,6.84,0,0,0-.91-.07,5.82,5.82,0,0,0-2.46.53,6.06,6.06,0,0,0-1.63-.22h-.18a4.85,4.85,0,0,0-2.94,1l0-.07c-.7-2.65-2.93-5.33-5.85-5.33S5.91,4.39,5.21,7L3,15.51a6.18,6.18,0,0,0,.71,5.26A4.41,4.41,0,0,0,7,22.6h.43a5.17,5.17,0,0,0,3.7-1.4,5.55,5.55,0,0,0,3.67,1.4h.34a4.85,4.85,0,0,0,2.19-.67,4.85,4.85,0,0,0,2.56.74h.18a4.83,4.83,0,0,0,2.33-.6,4.86,4.86,0,0,0,2.33.6h.19a5,5,0,0,0,2.51-.7,4.87,4.87,0,0,0,2.54.71h.19a4.83,4.83,0,0,0,2.72-.83,4.81,4.81,0,0,0,2.7.82h.18a4.78,4.78,0,0,0,2.31-.59,4.8,4.8,0,0,0,2.33.59h.19a4.79,4.79,0,0,0,2.34-.6,4.84,4.84,0,0,0,2.34.6h.19a4.85,4.85,0,0,0,2.69-.81A5.67,5.67,0,0,0,51.58,23a5.36,5.36,0,0,0,2.29-.5,6.39,6.39,0,0,0,1.48.17h.16a4.88,4.88,0,0,0,2.6-.75,4.87,4.87,0,0,0,2.59.75h.18a4.79,4.79,0,0,0,2.51-.7,5.61,5.61,0,0,0,2.68.7h.65a4.57,4.57,0,0,0,2.22-.55A7.18,7.18,0,0,0,72.4,23a6.48,6.48,0,0,0,4-1.43,4.87,4.87,0,0,0,3.11,1.12h.19a4.89,4.89,0,0,0,4.88-4.88V15.44a4.67,4.67,0,0,0,2.7-4.51V9.37A3.45,3.45,0,0,0,84.53,6Z"/><path class="cls-2" d="M28.43,6.7a1.61,1.61,0,1,1,3.22,0A1.6,1.6,0,0,1,30,8.31,1.62,1.62,0,0,1,28.43,6.7ZM28.52,11A1.43,1.43,0,0,1,30,9.59h.19A1.44,1.44,0,0,1,31.57,11V17.8a1.44,1.44,0,0,1-1.43,1.43H30a1.43,1.43,0,0,1-1.43-1.43Z"/><path class="cls-3" d="M73.14,17a1,1,0,0,1-.69.28.94.94,0,0,1-.91-.74,1.12,1.12,0,0,1,1.14-1.41h3.65a10.36,10.36,0,0,0-.5-3.47,3.82,3.82,0,0,0-1.44-1.76,3.63,3.63,0,0,0-2-.67,3.41,3.41,0,0,0-2.84,1.38,5.83,5.83,0,0,0-1.07,3.66,6.2,6.2,0,0,0,1.07,3.85,3.46,3.46,0,0,0,2.9,1.4,3.8,3.8,0,0,0,3-2c.36-.7-.09-1.18-.77-1.26S73.14,17,73.14,17Zm-1.85-3.52A3.19,3.19,0,0,1,71.56,12a.89.89,0,0,1,.86-.47,1.27,1.27,0,0,1,.28,0,.89.89,0,0,1,.57.46c0,.09.08.19.12.31h0a5.11,5.11,0,0,1,.16,1.19H71.29Z"/><path class="cls-4" d="M25.74,9.92a2,2,0,0,0-1.6-.67,2.35,2.35,0,0,0-1.61.6c-.53.55-1,1-1,1V13a.87.87,0,0,1,.94-.85.7.7,0,0,1,.6.31l.16.21c0,.33.07,1.24.07,2v3.08a1.44,1.44,0,0,0,1.43,1.43h.19a1.43,1.43,0,0,0,1.43-1.43v-6A2.62,2.62,0,0,0,25.74,9.92Z"/><path class="cls-5" d="M21.51,10.87h0a3.35,3.35,0,0,1,0-.66c0-.36-.64-.65-1.43-.65h-.18A1.43,1.43,0,0,0,18.44,11v6.78a1.43,1.43,0,0,0,1.43,1.43h.18a1.43,1.43,0,0,0,1.43-1.43V13.37a2.05,2.05,0,0,1,0-.37Z"/><path class="cls-6" d="M44.75,9.24a2.7,2.7,0,0,0-1.49.4A5.92,5.92,0,0,0,42,10.83v7.26a1.53,1.53,0,0,0,0-.3V13.51c0-.92.31-1.38.92-1.38h.6a15.8,15.8,0,0,1,.3,2.83v2.83a1.44,1.44,0,0,0,1.43,1.43h.19a1.43,1.43,0,0,0,1.43-1.43V12.22C46.87,10.23,46.16,9.24,44.75,9.24Z"/><path class="cls-7" d="M42,10.83l-.08.08a2,2,0,0,0-2.08-1.67,2.64,2.64,0,0,0-1.57.58c-.59.52-1.07.67-1.07.35l0-.05v7.79a.5.5,0,0,0,0-.12V13.38a1.53,1.53,0,0,1,.24-.91.81.81,0,0,1,.66-.34.74.74,0,0,1,.63.35l.17.23c0,.36.08,1.3.08,2.08v3a1.43,1.43,0,0,0,1.43,1.43h.19A1.45,1.45,0,0,0,42,18.09Z"/><path class="cls-8" d="M37.15,10.12c-.06-.3-.67-.54-1.41-.54h-.18A1.43,1.43,0,0,0,34.13,11v6.78a1.43,1.43,0,0,0,1.43,1.43h.18a1.42,1.42,0,0,0,1.41-1.31Z"/><path class="cls-9" d="M52.8,9.63a2,2,0,0,0-1.22-.37,2.47,2.47,0,0,0-2.18,1.38,7,7,0,0,0-.83,3.69,7.54,7.54,0,0,0,.82,3.81,2.45,2.45,0,0,0,2.19,1.41,2,2,0,0,0,1.2-.38l0,0,0,0a3.6,3.6,0,0,0,.41-.37c.17-.23.33-.42.45-.57a7.06,7.06,0,0,0,.95-2.87,7.66,7.66,0,0,0-.81-4.53A4.45,4.45,0,0,0,52.8,9.63Zm1.11,4.72c0,1.66-.37,2.49-1.13,2.49s-1.22-.83-1.22-2.49S52,12,52.74,12,53.91,12.75,53.91,14.35Z"/><path class="cls-10" d="M55.51,9.58h-.19c-.78,0-1.42.27-1.42.6v3.58c0,.18,0,.38,0,.59s0,.42,0,.62v3s0,.29,0,.63.65.64,1.44.64h.16a1.43,1.43,0,0,0,1.43-1.43V11A1.43,1.43,0,0,0,55.51,9.58Z"/><path class="cls-11" d="M65.72,15.12a2.4,2.4,0,0,1,.1-2.39l1.43-2c.46-.64.19-1.16-.59-1.16h-.79A2.83,2.83,0,0,0,63.7,10.8l-.6,1c-.38.64-.71,1.16-.76,1.21v1.53c0,.06.32.6.64,1.27l1,2.13a2.48,2.48,0,0,0,2,1.29h.65c.78,0,1.1-.55.7-1.23Z"/><path class="cls-12" d="M62.34,13v0s0-.65,0-1.43V5.88a1.44,1.44,0,0,0-1.43-1.43H60.7a1.44,1.44,0,0,0-1.43,1.43V17.79a1.43,1.43,0,0,0,1.43,1.43h.18a1.43,1.43,0,0,0,1.43-1.43V15.94c0-.78,0-1.43,0-1.43V13Z"/><path class="cls-13" d="M82,10.07c-.49.62-.78,1.14-.8,1.14a.87.87,0,0,0,0-.11v3.33c0-1.44.56-2.17,1.68-2.17h.32c.39.05.71-.55.71-1.33V9.37a2.77,2.77,0,0,0-.49-.06A2.1,2.1,0,0,0,82,10.07Z"/><path class="cls-14" d="M81.15,11.1v-.69c0-.45-.76-.83-1.55-.83h-.06A1.43,1.43,0,0,0,78.12,11v6.78a1.43,1.43,0,0,0,1.42,1.43h.19a1.43,1.43,0,0,0,1.42-1.43V11.1Z"/><path class="cls-15" d="M15.82,16.39,13.58,7.92C13.17,6.4,12,5.16,11.06,5.16S9,6.4,8.55,7.92L6.3,16.39c-.4,1.52,0,2.71.89,2.76,1.3.08,1.74-.52,1.89-1.17a6.34,6.34,0,0,1,.69-1.8,2.33,2.33,0,0,1,2.44,0A5.69,5.69,0,0,1,13,18a1.84,1.84,0,0,0,1.91,1.17C16.14,19.08,16.22,17.91,15.82,16.39ZM12.06,14.3H9.9a.3.3,0,0,1-.3-.38l1.1-4.29h0v0l.06-.24c.05-.13.13-.23.25-.23s.23.1.28.25l1.06,4.53A.29.29,0,0,1,12.06,14.3Z"/></svg>