<svg id="Layer_1" data-name="Layer 1" xmlns="http://www.w3.org/2000/svg" xmlns:xlink="http://www.w3.org/1999/xlink" viewBox="0 0 24 24"><defs><style>.cls-1{fill:none;}.cls-2{clip-path:url(#clip-path);}.cls-3{fill:#4d4d68;}</style><clipPath id="clip-path"><rect class="cls-1" width="24" height="24"/></clipPath></defs><title>Volume</title><g class="cls-2"><g id="Group_6" data-name="Group 6"><g class="cls-2"><g id="Group_5" data-name="Group 5"><g id="Group_2" data-name="Group 2"><g id="Path_1-2" data-name="Path 1-2"><path id="Path_4" data-name="Path 4" class="cls-3" d="M13.77,23.22h0a1.47,1.47,0,0,1-1.06-.45L7,17.08H2.77a1.52,1.52,0,0,1-1.52-1.52v-7A1.52,1.52,0,0,1,2.77,7.08H7l5.66-5.69a1.53,1.53,0,0,1,1.66-.34h0a1.53,1.53,0,0,1,.94,1.41V21.7a1.54,1.54,0,0,1-.94,1.41A1.56,1.56,0,0,1,13.77,23.22Z"/></g></g><g id="Path_32090" data-name="Path 32090"><path id="Path_5" data-name="Path 5" class="cls-3" d="M17.32,17.89V16.77a4.54,4.54,0,0,0,0-9.07V6.58a5.66,5.66,0,1,1,0,11.31Z"/></g></g></g></g></g></svg>